<svg width="472" height="137" viewBox="0 0 472 137" fill="none" xmlns="http://www.w3.org/2000/svg">
<path d="M136 52.3999C141 52.3999 145.8 53.3999 150.5 55.4999C155.2 57.5999 158.4 60.0999 160.1 62.9999L159.8 56.1999V55.5999C159.8 54.9999 160.3 54.4999 160.9 54.4999H177.4V134.2H160.4V133L160.7 126.2C159.6 128.2 157.7 130 155 131.5C152.3 133 149.3 134.2 146 135.1C142.7 135.9 139.3 136.4 135.9 136.4C127.8 136.4 120.6 134.5 114.4 130.7C108.2 126.9 103.5 121.8 100.1 115.4C96.7 109 95 102 95 94.2999C95 85.7999 96.8 78.3999 100.3 72.1999C103.8 65.8999 108.6 61.0999 114.7 57.5999C120.8 54.0999 128 52.3999 136 52.3999ZM136.5 119.7C141.1 119.7 145.3 118.6 149 116.4C152.7 114.2 155.6 111.2 157.6 107.3C159.7 103.5 160.7 99.0999 160.7 94.1999C160.7 89.2999 159.7 84.9999 157.6 81.1999C155.5 77.3999 152.6 74.3999 149 72.1999C145.3 69.9999 141.2 68.8999 136.5 68.8999C129.8 68.8999 124.2 71.1999 119.7 75.8999C115.2 80.4999 112.9 86.5999 112.9 94.1999C112.9 101.8 115.2 107.9 119.7 112.6C124.2 117.4 129.8 119.7 136.5 119.7Z" fill="black"/>
<path d="M213.9 55.5999V133C213.9 133.6 213.4 134.1 212.8 134.1H198.5C197.9 134.1 197.4 133.6 197.4 133V71.1999C197.4 70.5999 196.9 70.0999 196.3 70.0999H190C189.3 70.0999 188.7 69.3999 188.9 68.6999L191.8 55.3999C191.9 54.8999 192.4 54.4999 192.9 54.4999H212.9C213.4 54.3999 213.9 54.8999 213.9 55.5999ZM196 20.8999H212.5C213.4 20.8999 214.2 21.5999 214.2 22.5999V38.5999C214.2 39.4999 213.5 40.2999 212.5 40.2999H196C195.1 40.2999 194.3 39.5999 194.3 38.5999V22.5999C194.4 21.5999 195.1 20.8999 196 20.8999Z" fill="black"/>
<path d="M328.8 52.5C333.8 52.5 338.6 53.5 343.3 55.6C348 57.7 351.2 60.2 352.9 63.1L352.6 56.3V55.6C352.6 55 353.1 54.5 353.7 54.5H370.2V134.2H353.2V133L353.5 126.2C352.4 128.2 350.5 130 347.8 131.5C345.1 133 342.1 134.2 338.8 135.1C335.5 135.9 332.1 136.4 328.7 136.4C320.6 136.4 313.4 134.5 307.2 130.7C301 126.9 296.3 121.8 292.9 115.4C289.5 109 287.8 102 287.8 94.3C287.8 85.8 289.6 78.4 293.1 72.2C296.6 65.9 301.4 61.1 307.5 57.6C313.6 54.1 320.8 52.5 328.8 52.5ZM329.3 119.8C333.9 119.8 338.1 118.7 341.8 116.5C345.5 114.3 348.4 111.3 350.4 107.4C352.5 103.6 353.5 99.2 353.5 94.3C353.5 89.4 352.5 85.1 350.4 81.3C348.3 77.5 345.4 74.5 341.8 72.3C338.1 70.1 334 69 329.3 69C322.6 69 317 71.3 312.5 76C308 80.6 305.7 86.7 305.7 94.3C305.7 101.9 308 108 312.5 112.7C317.1 117.5 322.7 119.8 329.3 119.8Z" fill="black"/>
<path d="M430.6 136.4C426 136.4 421.3 135.4 416.6 133.4C411.9 131.4 408.6 128.9 406.7 125.9L407 132.7V133.1C407 133.7 406.5 134.2 405.9 134.2H395.9C392.2 134.2 389.2 131.2 389.2 127.5V1.1C389.2 0.499998 389.7 0 390.3 0H399.6C403.3 0 406.3 3 406.3 6.7V55.1L406 61.5C406 61.7 406.3 61.8 406.4 61.6C407.6 59.9 409.3 58.4 411.7 57.1C414.4 55.6 417.5 54.5 420.9 53.7C424.3 52.9 427.5 52.5 430.6 52.5C439.1 52.5 446.4 54.5 452.5 58.4C458.6 62.3 463.3 67.4 466.6 73.8C469.9 80.2 471.5 87.1 471.5 94.6C471.5 103 469.9 110.3 466.6 116.6C463.3 122.9 458.6 127.8 452.4 131.3C446.2 134.7 438.9 136.4 430.6 136.4ZM430.4 69.1C425.5 69.1 421.3 70.2 417.6 72.5C413.9 74.8 411.1 77.8 409 81.7C407 85.5 405.9 89.8 405.9 94.6C405.9 99.2 406.9 103.5 409 107.3C411 111.1 413.9 114.2 417.6 116.5C421.3 118.8 425.5 119.9 430.4 119.9C437.3 119.9 442.9 117.5 447.3 112.7C451.7 107.9 453.8 101.9 453.8 94.6C453.8 87.3 451.6 81.2 447.3 76.4C442.9 71.5 437.3 69.1 430.4 69.1Z" fill="black"/>
<path d="M242 119.9L255 99.6C255.3 99.1 256 99.3 256 99.9V104.9C256 106.6 257.4 108 259.1 108H271C271.6 108 272.1 107.5 272.1 106.9V1.1C272.1 0.499998 271.6 0 271 0H261.9C258.7 0 256 3.1 256 7V78L229.9 120.6C229.8 120.8 229.7 121 229.7 121.2V133.1C229.7 133.7 230.2 134.2 230.8 134.2H284.5C285.1 134.2 285.6 133.7 285.6 133.1V121.1C285.6 120.5 285.1 120 284.5 120H242V119.9Z" fill="black"/>
<path d="M23.7 134.1H0V8.6C0 7.9 0.500001 7.4 1.2 7.4C16.7 7.2 32.2 7.2 47.7 7.4C56.5 7.5 64.3 9.3 71.4 12.8C78.4 16.3 84 21 88.2 27.1C92.3 33.1 94.4 40 94.4 47.8C94.4 57.2 92 65.2 87.3 71.6C82.6 78 76.2 82 68.1 83.6L100.8 133.5C101 133.8 100.8 134.3 100.4 134.3H73.8L34.1 69.4C33.4 68.2 34.2 66.8 35.6 66.8C40 66.9 44.2 66.9 48.2 66.7C54.4 66.6 59.3 64.9 62.9 61.6C66.5 58.3 68.3 53.7 68.3 47.9C68.3 42.7 66.2 38.3 62 34.6C57.8 30.9 52.5 29 46 28.9C42.5 28.8 38.8 28.7 34.8 28.7C30.8 28.7 27.1 28.7 23.7 28.7V134.1Z" fill="black"/>
</svg>
